# xmcd
#
# Track frame offsets: 
#        150
#        23939
#        43711
#        77877
#        103657
#        147464
#        175805
#        199858
#        226028
#        245453
#
# Disc length: 3566 seconds
#
# Revision: 0
# Processed by: cddbd v1.5.2PL0 Copyright (c) Steve Scherf et al.
# Submitted via: ExactAudioCopyFreeDBPlugin 1.0
#
DISCID=820dec0a
DTITLE=French Blues All Stars - Live In Paris
DYEAR=2012
DGENRE=Blues
TTITLE0=When I Had I Didn't Need (Cornelius Green)
TTITLE1=Shame Shame Shame (James Reed)
TTITLE2=A Man And The Blues (Buddy Guy)
TTITLE3=Sweet On You Babe (Billy Boy Arnold)
TTITLE4=Look Like Twins (Mc Kinley Morganfield)
TTITLE5=Can't Hold Out Much Longer (Marion Jacobs)
TTITLE6=My Eyes On You (Buddy Guy - Willie Dixon)
TTITLE7=Who's Been Talking (Chester Burnett)
TTITLE8=Aladdin Boogie (Amos Milburn)
TTITLE9=So Many Tears (Lowell Fulson)
EXTD=
EXTT0=
EXTT1=
EXTT2=
EXTT3=
EXTT4=
EXTT5=
EXTT6=
EXTT7=
EXTT8=
EXTT9=
PLAYORDER=
